<svg width="256" height="256" viewBox="0 0 256 256" fill="none" xmlns="http://www.w3.org/2000/svg">
<rect width="256" height="256" rx="70" fill="#4541D9"/>
<path d="M45 153.59V145.866C45 145.127 45.774 144.644 46.4383 144.967L122.146 181.883C125.796 183.582 131.637 183.339 135.044 181.883L208.549 144.756C209.214 144.42 210 144.904 210 145.649V153.838C210 154.219 209.785 154.566 209.444 154.734L135.044 191.59C131.637 193.289 126.04 193.774 122.146 191.59L45.564 154.49C45.2191 154.322 45 153.973 45 153.59Z" fill="white" fill-opacity="0.7"/>
<path d="M45 132.855V125.132C45 124.393 45.774 123.909 46.4383 124.233L122.146 161.148C125.796 162.847 131.637 162.604 135.044 161.148L208.549 124.022C209.214 123.686 210 124.169 210 124.914V133.104C210 133.484 209.785 133.831 209.444 134L135.044 170.856C131.637 172.555 126.04 173.04 122.146 170.856L45.564 133.755C45.2191 133.588 45 133.239 45 132.855Z" fill="white" fill-opacity="0.7"/>
<path d="M46.692 112.615C45.6572 112.114 45 111.065 45 109.915V106.646C45 104.428 47.322 102.977 49.3148 103.949L55.2033 106.82L122.146 139.462C125.796 141.161 131.637 140.918 135.044 139.462L199.797 106.756L205.647 103.801C207.643 102.793 210 104.243 210 106.479V110.176C210 111.317 209.354 112.358 208.332 112.864L135.044 149.169C131.637 150.868 126.04 151.353 122.146 149.169L46.692 112.615Z" fill="white"/>
<path d="M208.308 100.961C209.343 101.463 210 102.511 210 103.661V106.931C210 109.148 207.678 110.599 205.685 109.627L199.797 106.756L132.854 74.1146C129.204 72.4158 123.363 72.6585 119.956 74.1146L55.2033 106.82L49.3525 109.775C47.3571 110.783 45 109.333 45 107.098L45 103.4C45 102.26 45.6465 101.218 46.6683 100.712L119.956 64.4071C123.363 62.7083 128.96 62.2229 132.854 64.4071L208.308 100.961Z" fill="white"/>
<path d="M135.044 139.462L199.797 106.756L132.854 74.1146C129.204 72.4158 123.363 72.6585 119.956 74.1146L55.2033 106.82L122.146 139.462C125.796 141.161 131.637 140.918 135.044 139.462Z" fill="white"/>
</svg>
