<svg width="537" height="111" viewBox="0 0 537 111" fill="none" xmlns="http://www.w3.org/2000/svg">
<path d="M68.6576 3.38171L3.79091 34.6625V39.3124L70.3424 70.5932L134.788 39.3124V34.6625L68.6576 3.38171Z" fill="#4541D9"/>
<path d="M0 76.6374V70.1078C0 69.483 0.652043 69.0741 1.21164 69.3479L64.9897 100.557C68.0649 101.993 72.9852 101.788 75.8555 100.557L137.778 69.1694C138.338 68.8854 139 69.294 139 69.924V76.8477C139 77.1691 138.818 77.4626 138.532 77.6053L75.8555 108.764C72.9852 110.2 68.2699 110.611 64.9897 108.764L0.475137 77.3982C0.184554 77.2569 0 76.9614 0 76.6374Z" fill="#4541D9" fill-opacity="0.7"/>
<path d="M0 59.1036V52.5741C0 51.9493 0.652043 51.5404 1.21164 51.8142L64.9897 83.0234C68.0649 84.4596 72.9852 84.2545 75.8555 83.0234L137.778 51.6356C138.338 51.3516 139 51.7603 139 52.3903V59.314C139 59.6353 138.818 59.9289 138.532 60.0715L75.8555 91.2304C72.9852 92.6666 68.2699 93.077 64.9897 91.2304L0.475137 59.8645C0.184554 59.7232 0 59.4277 0 59.1036Z" fill="#4541D9" fill-opacity="0.7"/>
<path d="M1.42541 41.9922C0.553663 41.5684 0 40.6818 0 39.7097V36.9454C0 35.071 1.95612 33.8442 3.63492 34.6657L8.59551 37.0931L64.9897 64.6891C68.0649 66.1254 72.9852 65.9202 75.8555 64.6891L130.404 37.0388L135.333 34.5404C137.014 33.6884 139 34.9144 139 36.8043V39.9303C139 40.8944 138.455 41.7751 137.595 42.203L75.8555 72.8961C72.9852 74.3324 68.2699 74.7427 64.9897 72.8961L1.42541 41.9922Z" fill="#4541D9"/>
<path d="M137.575 32.1398C138.446 32.5636 139 33.4502 139 34.4223V37.1865C139 39.0609 137.044 40.2877 135.365 39.4662L130.404 37.0388L74.0103 9.44282C70.9351 8.0066 66.0147 8.21177 63.1445 9.44282L8.59551 37.0931L3.66668 39.5915C1.98571 40.4436 1.94476e-07 39.2175 3.59112e-07 37.3276L6.31431e-07 34.2016C7.15412e-07 33.2375 0.544621 32.3568 1.40543 31.9289L63.1445 1.23582C66.0148 -0.200404 70.7301 -0.610752 74.0103 1.23582L137.575 32.1398Z" fill="#4541D9"/>
<path d="M202.18 32.9688C202.18 31.875 202.701 31.3281 203.742 31.3281H241.516C242.557 31.3281 243.078 31.8099 243.078 32.7734C243.078 35.1172 243.013 37.474 242.883 39.8438C242.779 42.2135 242.688 44.5703 242.609 46.9141C242.583 47.9818 242.062 48.5156 241.047 48.5156H220.461C220.174 48.5156 220.031 48.6589 220.031 48.9453V52.3047C220.031 52.7214 220.24 52.9297 220.656 52.9297H237.648C238.69 52.9297 239.211 53.4635 239.211 54.5312C239.211 56.6146 239.224 58.7109 239.25 60.8203C239.276 62.9297 239.289 65.026 239.289 67.1094C239.289 68.151 238.768 68.6719 237.727 68.6719H220.461C220.174 68.6719 220.031 68.8151 220.031 69.1016C220.031 71.4714 220.031 73.8542 220.031 76.25C220.031 78.6198 220.005 81.0026 219.953 83.3984C219.901 84.4661 219.367 85 218.352 85H203.625C202.583 85 202.062 84.4531 202.062 83.3594C202.062 81.9271 202.102 80.5078 202.18 79.1016C202.284 77.6693 202.362 76.237 202.414 74.8047C202.518 71.8099 202.596 68.8281 202.648 65.8594C202.701 62.8906 202.727 59.9089 202.727 56.9141C202.727 54.2057 202.688 51.4974 202.609 48.7891C202.557 46.0807 202.492 43.3854 202.414 40.7031C202.388 39.401 202.336 38.112 202.258 36.8359C202.206 35.5339 202.18 34.2448 202.18 32.9688ZM249.133 26.6406C249.133 25.5208 249.667 24.9609 250.734 24.9609H265.93C266.997 24.9609 267.531 25.5208 267.531 26.6406C267.531 31.3542 267.466 36.0807 267.336 40.8203C267.232 45.5339 267.18 50.2604 267.18 55C267.18 59.7135 267.219 64.4401 267.297 69.1797C267.401 73.9193 267.453 78.6589 267.453 83.3984C267.453 84.4661 266.932 85 265.891 85H250.773C249.732 85 249.211 84.4661 249.211 83.3984C249.211 78.6589 249.263 73.9193 249.367 69.1797C249.471 64.4401 249.523 59.7135 249.523 55C249.523 50.2604 249.458 45.5339 249.328 40.8203C249.198 36.0807 249.133 31.3542 249.133 26.6406ZM302.18 85C301.529 85 301.034 84.6745 300.695 84.0234C300.591 83.8151 300.396 83.3594 300.109 82.6562C299.823 81.9271 299.523 81.237 299.211 80.5859C298.898 79.9349 298.638 79.6094 298.43 79.6094C298.352 79.6094 298.234 79.7266 298.078 79.9609C296.646 81.9401 295.148 83.4896 293.586 84.6094C292.023 85.7031 289.953 86.25 287.375 86.25C285.214 86.25 283.182 85.7943 281.281 84.8828C279.38 83.9714 277.844 82.6823 276.672 81.0156C275.5 79.3229 274.914 77.3307 274.914 75.0391C274.914 72.3568 274.966 69.6745 275.07 66.9922C275.174 64.3099 275.227 61.6276 275.227 58.9453C275.227 56.9401 275.201 54.9219 275.148 52.8906C275.122 50.8594 275.109 48.8411 275.109 46.8359C275.109 45.7943 275.63 45.2734 276.672 45.2734H291.047C292.062 45.2734 292.583 45.7943 292.609 46.8359C292.661 48.6328 292.688 50.4427 292.688 52.2656C292.688 54.0885 292.688 55.8984 292.688 57.6953C292.688 59.4922 292.674 61.3021 292.648 63.125C292.622 64.9219 292.609 66.7188 292.609 68.5156C292.609 69.2448 292.688 70.0391 292.844 70.8984C293.026 71.7578 293.612 72.1875 294.602 72.1875C295.93 72.1875 296.932 71.5885 297.609 70.3906C298.286 69.1927 298.742 67.7344 298.977 66.0156C299.237 64.2969 299.367 62.6172 299.367 60.9766C299.367 59.3099 299.367 58.0339 299.367 57.1484C299.367 55.4557 299.341 53.737 299.289 51.9922C299.263 50.2474 299.315 48.5286 299.445 46.8359C299.523 45.7943 300.044 45.2734 301.008 45.2734H315.344C316.359 45.2734 316.867 45.7943 316.867 46.8359C316.867 48.6589 316.841 50.4818 316.789 52.3047C316.763 54.1016 316.75 55.9115 316.75 57.7344C316.75 60.625 316.776 63.5156 316.828 66.4062C316.88 69.2969 316.958 72.1875 317.062 75.0781C317.115 76.4583 317.193 77.8385 317.297 79.2188C317.401 80.599 317.453 81.9792 317.453 83.3594C317.453 84.4531 316.932 85 315.891 85H302.18ZM361.711 46.25C361.711 46.6146 361.385 47.3828 360.734 48.5547C360.083 49.7266 359.276 51.0807 358.312 52.6172C357.349 54.1536 356.372 55.6771 355.383 57.1875C354.419 58.6979 353.612 60.013 352.961 61.1328C352.31 62.2266 351.984 62.8906 351.984 63.125C351.984 63.3073 352.362 64.0234 353.117 65.2734C353.898 66.4974 354.875 67.9948 356.047 69.7656C357.219 71.5104 358.417 73.2812 359.641 75.0781C360.865 76.875 361.945 78.4635 362.883 79.8438C363.846 81.1979 364.471 82.0833 364.758 82.5C364.888 82.6823 365.031 82.9167 365.188 83.2031C365.344 83.4635 365.422 83.724 365.422 83.9844C365.422 84.4792 365.188 84.7786 364.719 84.8828C364.276 84.9609 363.872 85 363.508 85H345.188C344.667 85 344.224 84.7656 343.859 84.2969C343.703 84.0885 343.417 83.6719 343 83.0469C342.609 82.3958 342.167 81.7057 341.672 80.9766C341.203 80.2214 340.76 79.5833 340.344 79.0625C339.927 78.5156 339.628 78.2422 339.445 78.2422C339.211 78.2422 338.885 78.6719 338.469 79.5312C338.052 80.3646 337.661 81.25 337.297 82.1875C336.932 83.125 336.685 83.737 336.555 84.0234C336.268 84.6745 335.773 85 335.07 85H321.281C320.943 85 320.539 84.9609 320.07 84.8828C319.602 84.7786 319.367 84.4792 319.367 83.9844C319.367 83.6979 319.445 83.4375 319.602 83.2031C319.732 82.9688 319.875 82.7344 320.031 82.5C320.292 82.1354 320.826 81.3411 321.633 80.1172C322.466 78.8672 323.417 77.4349 324.484 75.8203C325.578 74.1797 326.646 72.5781 327.688 71.0156C328.729 69.4271 329.589 68.0859 330.266 66.9922C330.943 65.8724 331.281 65.2344 331.281 65.0781C331.281 64.9479 330.943 64.3359 330.266 63.2422C329.615 62.1484 328.781 60.8203 327.766 59.2578C326.776 57.6953 325.747 56.1198 324.68 54.5312C323.638 52.9167 322.714 51.4974 321.906 50.2734C321.099 49.0234 320.578 48.2161 320.344 47.8516C320.214 47.6172 320.083 47.3828 319.953 47.1484C319.797 46.888 319.719 46.6276 319.719 46.3672C319.719 45.8984 319.953 45.625 320.422 45.5469C320.891 45.4427 321.294 45.3906 321.633 45.3906H339.562C340.214 45.3906 340.786 45.7943 341.281 46.6016C341.776 47.4089 342.232 48.2292 342.648 49.0625C343.065 49.8698 343.482 50.2734 343.898 50.2734C344.237 50.2734 344.458 50.026 344.562 49.5312C344.667 49.0365 344.758 48.4766 344.836 47.8516C344.914 47.2005 345.07 46.6276 345.305 46.1328C345.565 45.638 346.008 45.3906 346.633 45.3906H359.914C360.201 45.3906 360.565 45.4297 361.008 45.5078C361.477 45.5859 361.711 45.8333 361.711 46.25ZM411.516 64.8047C411.516 67.3828 411.138 69.9479 410.383 72.5C409.628 75.026 408.495 77.3307 406.984 79.4141C405.5 81.4974 403.664 83.1641 401.477 84.4141C399.289 85.638 396.763 86.25 393.898 86.25C392.362 86.25 390.956 86.0286 389.68 85.5859C388.43 85.1432 387.154 84.5182 385.852 83.7109L385.5 83.5156H385.266C385.161 83.5938 385.109 83.763 385.109 84.0234C385.109 84.2057 385.096 84.4141 385.07 84.6484C385.07 84.8828 384.927 85 384.641 85H368.586C367.544 85 367.023 84.4531 367.023 83.3594C367.023 81.9531 367.076 80.5339 367.18 79.1016C367.284 77.6693 367.362 76.25 367.414 74.8438C367.518 71.875 367.596 68.9193 367.648 65.9766C367.701 63.0078 367.727 60.0391 367.727 57.0703C367.727 53.6589 367.688 50.2474 367.609 46.8359C367.557 43.3984 367.466 39.987 367.336 36.6016C367.284 34.987 367.18 33.3594 367.023 31.7188C366.867 30.0521 366.789 28.4115 366.789 26.7969C366.789 25.7031 367.31 25.1562 368.352 25.1562H383.391C384.484 25.1562 385.031 25.6901 385.031 26.7578C385.031 28.6849 385.044 30.625 385.07 32.5781C385.096 34.5312 385.109 36.4714 385.109 38.3984C385.135 39.5964 385.135 40.7943 385.109 41.9922C385.109 43.1641 385.122 44.349 385.148 45.5469C385.148 45.651 385.174 45.7943 385.227 45.9766C385.279 46.1328 385.383 46.1979 385.539 46.1719L385.969 45.8984C387.427 44.9089 388.898 44.1406 390.383 43.5938C391.867 43.0469 393.508 42.7734 395.305 42.7734C398.404 42.7734 400.982 43.4245 403.039 44.7266C405.122 46.0286 406.789 47.7604 408.039 49.9219C409.289 52.0573 410.174 54.4271 410.695 57.0312C411.242 59.6094 411.516 62.2005 411.516 64.8047ZM389.758 70.8203C390.826 70.8203 391.659 70.4036 392.258 69.5703C392.883 68.737 393.326 67.7734 393.586 66.6797C393.872 65.5599 394.016 64.5833 394.016 63.75C394.016 62.9427 393.872 61.9531 393.586 60.7812C393.299 59.5833 392.844 58.5286 392.219 57.6172C391.594 56.6797 390.773 56.2109 389.758 56.2109C388.977 56.2109 388.208 56.4193 387.453 56.8359C386.698 57.2266 386.06 57.6823 385.539 58.2031C385.539 59.8958 385.539 61.6016 385.539 63.3203C385.539 65.013 385.513 66.7057 385.461 68.3984C385.904 69.1276 386.516 69.7135 387.297 70.1562C388.104 70.599 388.924 70.8203 389.758 70.8203ZM431.594 86.25C428.755 86.25 426.346 85.6641 424.367 84.4922C422.414 83.2943 420.826 81.7188 419.602 79.7656C418.404 77.7865 417.531 75.599 416.984 73.2031C416.464 70.8073 416.203 68.3854 416.203 65.9375C416.203 63.099 416.49 60.3776 417.062 57.7734C417.661 55.1693 418.625 52.8516 419.953 50.8203C421.281 48.763 423.052 47.1484 425.266 45.9766C427.479 44.7786 430.201 44.1797 433.43 44.1797C434.966 44.1797 436.411 44.4271 437.766 44.9219C439.12 45.3906 440.474 45.9635 441.828 46.6406L442.023 46.7188H442.219C442.661 46.4583 442.974 46.1589 443.156 45.8203C443.339 45.4557 443.742 45.2734 444.367 45.2734H458.469C459.51 45.2734 460.031 45.7943 460.031 46.8359C460.031 48.8151 460.005 50.7943 459.953 52.7734C459.927 54.7526 459.914 56.7318 459.914 58.7109C459.914 61.4714 459.94 64.2448 459.992 67.0312C460.044 69.8177 460.122 72.6042 460.227 75.3906C460.279 76.7188 460.357 78.0469 460.461 79.375C460.565 80.7031 460.617 82.0312 460.617 83.3594C460.617 84.4531 460.096 85 459.055 85H444.68C443.898 85 443.508 84.5443 443.508 83.6328C443.508 83.4505 443.508 83.151 443.508 82.7344C443.534 82.2917 443.404 82.0703 443.117 82.0703L442.961 82.1094C441.216 83.3594 439.432 84.362 437.609 85.1172C435.812 85.8724 433.807 86.25 431.594 86.25ZM438.078 71.5234C439.068 71.5234 440.031 71.3281 440.969 70.9375C441.932 70.5208 442.701 69.9089 443.273 69.1016V58.9062C442.57 58.3073 441.776 57.8255 440.891 57.4609C440.031 57.0964 439.133 56.9141 438.195 56.9141C436.997 56.9141 436.021 57.3698 435.266 58.2812C434.536 59.1667 434.003 60.2214 433.664 61.4453C433.326 62.6693 433.156 63.776 433.156 64.7656C433.156 65.7292 433.326 66.7318 433.664 67.7734C434.003 68.8151 434.536 69.7005 435.266 70.4297C435.995 71.1589 436.932 71.5234 438.078 71.5234ZM476.828 86.3281C475.63 86.3281 474.289 86.1849 472.805 85.8984C471.346 85.638 469.94 85.2083 468.586 84.6094C467.258 84.0104 466.164 83.2552 465.305 82.3438C465.227 82.2656 465.135 82.1484 465.031 81.9922C464.927 81.8099 464.875 81.6667 464.875 81.5625C464.875 81.3542 464.992 80.8594 465.227 80.0781C465.487 79.2708 465.773 78.3854 466.086 77.4219C466.424 76.4323 466.75 75.5208 467.062 74.6875C467.375 73.8542 467.583 73.2943 467.688 73.0078C467.792 72.7734 467.935 72.526 468.117 72.2656C468.299 71.9792 468.534 71.8359 468.82 71.8359C469.341 71.8359 469.953 72.0312 470.656 72.4219C471.359 72.7865 472.141 73.1641 473 73.5547C473.859 73.9193 474.784 74.1016 475.773 74.1016C476.372 74.1016 476.763 73.9844 476.945 73.75C477.154 73.4896 477.258 73.0729 477.258 72.5C477.258 71.1719 476.919 70.2995 476.242 69.8828C475.565 69.4661 474.719 68.9844 473.703 68.4375C471.099 67.0573 469.107 65.3906 467.727 63.4375C466.372 61.4583 465.695 58.9714 465.695 55.9766C465.695 53.0599 466.333 50.7552 467.609 49.0625C468.911 47.3438 470.643 46.1198 472.805 45.3906C474.966 44.6354 477.349 44.2578 479.953 44.2578C480.422 44.2578 481.19 44.2969 482.258 44.375C483.352 44.4531 484.497 44.5964 485.695 44.8047C486.893 45.013 487.922 45.3125 488.781 45.7031C489.641 46.0938 490.07 46.6016 490.07 47.2266C490.07 47.5391 489.953 48.1641 489.719 49.1016C489.484 50.013 489.237 50.9375 488.977 51.875C488.716 52.8125 488.521 53.4766 488.391 53.8672C488.286 54.2057 488.143 54.5182 487.961 54.8047C487.805 55.0651 487.505 55.1953 487.062 55.1953C486.464 55.1953 485.865 55.0781 485.266 54.8438C484.693 54.6094 484.107 54.4922 483.508 54.4922C482.909 54.4922 482.414 54.6224 482.023 54.8828C481.633 55.1432 481.438 55.612 481.438 56.2891C481.438 57.1484 481.776 57.9167 482.453 58.5938C483.13 59.2708 483.951 59.9089 484.914 60.5078C485.878 61.0807 486.828 61.6276 487.766 62.1484C488.703 62.6693 489.432 63.1901 489.953 63.7109C490.969 64.7526 491.633 65.9635 491.945 67.3438C492.284 68.724 492.453 70.1042 492.453 71.4844C492.453 76.1979 490.995 79.8568 488.078 82.4609C485.161 85.0391 481.411 86.3281 476.828 86.3281ZM517.688 86.25C510.865 86.25 505.526 84.6224 501.672 81.3672C497.818 78.112 495.891 72.9427 495.891 65.8594C495.891 59.3229 497.622 54.0755 501.086 50.1172C504.549 46.1328 509.654 44.1406 516.398 44.1406C522.076 44.1406 526.372 45.6641 529.289 48.7109C532.232 51.7578 534.003 56.0156 534.602 61.4844V61.7188C534.602 62.1354 534.523 62.4479 534.367 62.6562C534.211 62.8385 533.951 63.0339 533.586 63.2422C532.857 63.6328 532.049 63.9453 531.164 64.1797C530.279 64.4141 529.432 64.6745 528.625 64.9609L519.406 68.1641C518.599 68.4505 517.779 68.724 516.945 68.9844C516.112 69.2188 515.279 69.4922 514.445 69.8047L514.172 70.2344C514.198 70.2865 514.211 70.3385 514.211 70.3906C514.211 70.4427 514.224 70.4948 514.25 70.5469C514.771 71.7708 515.604 72.7474 516.75 73.4766C517.896 74.2057 519.12 74.5703 520.422 74.5703C521.724 74.5703 522.948 74.349 524.094 73.9062C525.24 73.4635 526.229 73.0339 527.062 72.6172C527.922 72.1745 528.534 71.9531 528.898 71.9531C529.237 71.9531 529.497 72.0833 529.68 72.3438C529.888 72.5781 530.057 72.8255 530.188 73.0859C530.318 73.3464 530.552 73.8672 530.891 74.6484C531.229 75.4036 531.594 76.25 531.984 77.1875C532.375 78.099 532.714 78.9193 533 79.6484C533.286 80.3776 533.43 80.8333 533.43 81.0156C533.43 81.4323 533.221 81.7969 532.805 82.1094C530.852 83.6198 528.443 84.6875 525.578 85.3125C522.74 85.9375 520.109 86.25 517.688 86.25ZM513.273 62.1094C514.341 61.6667 515.409 61.2109 516.477 60.7422C517.57 60.2734 518.651 59.8177 519.719 59.375C519.745 58.3073 519.445 57.5781 518.82 57.1875C518.195 56.7969 517.414 56.6016 516.477 56.6016C515.513 56.6016 514.81 56.9141 514.367 57.5391C513.924 58.138 513.638 58.8672 513.508 59.7266C513.404 60.5859 513.326 61.3802 513.273 62.1094Z" fill="black"/>
</svg>
