<svg width="165" height="131" viewBox="0 0 165 131" fill="none" xmlns="http://www.w3.org/2000/svg">
<path d="M81.5 4L4.5 41V46.5L83.5 83.5L160 46.5V41L81.5 4Z" fill="currentColor"/>
<path d="M0 90.6492V82.9259C0 82.1868 0.774008 81.7031 1.43828 82.027L77.146 118.942C80.7965 120.641 86.6372 120.398 90.0443 118.942L163.549 81.8158C164.214 81.4799 165 81.9633 165 82.7084V90.898C165 91.2781 164.785 91.6254 164.444 91.7941L90.0443 128.65C86.6372 130.349 81.0398 130.834 77.146 128.65L0.564012 91.5492C0.219075 91.382 0 91.0325 0 90.6492Z" fill="currentColor" fill-opacity="0.7"/>
<path d="M0 69.9097V62.1864C0 61.4473 0.774008 60.9636 1.43828 61.2875L77.146 98.2028C80.7965 99.9016 86.6372 99.6589 90.0443 98.2028L163.549 61.0763C164.214 60.7404 165 61.2238 165 61.9689V70.1585C165 70.5386 164.785 70.8859 164.444 71.0546L90.0443 107.91C86.6372 109.609 81.0398 110.095 77.146 107.91L0.564012 70.8096C0.219075 70.6425 0 70.293 0 69.9097Z" fill="currentColor" fill-opacity="0.7"/>
<path d="M1.69204 49.6697C0.657226 49.1684 0 48.1197 0 46.9699V43.7003C0 41.4832 2.32202 40.032 4.31483 41.0037L10.2033 43.875L77.146 76.5164C80.7965 78.2152 86.6372 77.9726 90.0443 76.5164L154.797 43.8107L160.647 40.8555C162.643 39.8477 165 41.2979 165 43.5334V47.2309C165 48.3712 164.354 49.413 163.332 49.9191L90.0443 86.2239C86.6372 87.9228 81.0398 88.4081 77.146 86.2239L1.69204 49.6697Z" fill="currentColor"/>
<path d="M163.308 38.016C164.343 38.5173 165 39.566 165 40.7158V43.9854C165 46.2025 162.678 47.6537 160.685 46.682L154.797 43.8107L87.854 11.1693C84.2035 9.47046 78.3628 9.71315 74.9557 11.1693L10.2033 43.875L4.35253 46.8301C2.35714 47.838 2.30853e-07 46.3878 4.26284e-07 44.1523L7.4954e-07 40.4548C8.4923e-07 39.3144 0.646492 38.2727 1.66831 37.7665L74.9558 1.46177C78.3628 -0.237044 83.9602 -0.722418 87.854 1.46177L163.308 38.016Z" fill="currentColor"/>
</svg>
